{
	"asset":{
		"generator":"Khronos glTF Blender I/O v4.5.47",
		"version":"2.0"
	},
	"extensionsUsed":[
		"EXT_texture_webp"
	],
	"extensionsRequired":[
		"EXT_texture_webp"
	],
	"scene":0,
	"scenes":[
		{
			"name":"Scene",
			"nodes":[
				0,
				1,
				2,
				3,
				4,
				5,
				6,
				7,
				8,
				9,
				10,
				11,
				12
			]
		}
	],
	"nodes":[
		{
			"mesh":0,
			"name":"table"
		},
		{
			"mesh":1,
			"name":"kitchen"
		},
		{
			"mesh":2,
			"name":"vase"
		},
		{
			"mesh":3,
			"name":"lamp_socket"
		},
		{
			"mesh":4,
			"name":"sink"
		},
		{
			"mesh":5,
			"name":"vase1"
		},
		{
			"mesh":6,
			"name":"chairs"
		},
		{
			"mesh":7,
			"name":"plant"
		},
		{
			"mesh":8,
			"name":"bottle"
		},
		{
			"mesh":9,
			"name":"cuttingboard"
		},
		{
			"mesh":10,
			"name":"lamp"
		},
		{
			"mesh":11,
			"name":"lamp_cord"
		},
		{
			"mesh":12,
			"name":"bowl"
		}
	],
	"materials":[
		{
			"doubleSided":true,
			"name":"walls",
			"pbrMetallicRoughness":{
				"baseColorTexture":{
					"index":0
				},
				"metallicFactor":0,
				"roughnessFactor":0.5
			}
		},
		{
			"doubleSided":true,
			"name":"gray",
			"pbrMetallicRoughness":{
				"baseColorTexture":{
					"index":1
				},
				"metallicFactor":0,
				"roughnessFactor":0.3227272629737854
			}
		},
		{
			"doubleSided":true,
			"name":"chrome",
			"pbrMetallicRoughness":{
				"baseColorTexture":{
					"index":2
				},
				"metallicFactor":0.6772727370262146,
				"roughnessFactor":0.5
			}
		},
		{
			"doubleSided":true,
			"name":"plastic",
			"pbrMetallicRoughness":{
				"baseColorFactor":[
					0.009234348312020302,
					0.009234348312020302,
					0.009234348312020302,
					1
				],
				"metallicFactor":0,
				"roughnessFactor":0.10000000149011612
			}
		},
		{
			"alphaMode":"BLEND",
			"doubleSided":true,
			"name":"potted_plant_01_leaves",
			"normalTexture":{
				"index":3
			},
			"occlusionTexture":{
				"index":4
			},
			"pbrMetallicRoughness":{
				"baseColorTexture":{
					"index":5
				},
				"metallicFactor":0,
				"metallicRoughnessTexture":{
					"index":4
				}
			}
		},
		{
			"doubleSided":true,
			"name":"potted_plant_01_pot",
			"normalTexture":{
				"index":6
			},
			"occlusionTexture":{
				"index":7
			},
			"pbrMetallicRoughness":{
				"baseColorTexture":{
					"index":8
				},
				"metallicFactor":0,
				"roughnessFactor":0.5
			}
		},
		{
			"doubleSided":true,
			"name":"glass",
			"pbrMetallicRoughness":{
				"baseColorTexture":{
					"index":9
				},
				"metallicFactor":0,
				"roughnessFactor":0.10000000149011612
			}
		}
	],
	"meshes":[
		{
			"name":"table",
			"primitives":[
				{
					"attributes":{
						"POSITION":0,
						"NORMAL":1,
						"TEXCOORD_0":2
					},
					"indices":3,
					"material":0
				}
			]
		},
		{
			"name":"kitchen",
			"primitives":[
				{
					"attributes":{
						"POSITION":4,
						"NORMAL":5,
						"TEXCOORD_0":6
					},
					"indices":7,
					"material":0
				}
			]
		},
		{
			"name":"Cylinder.001",
			"primitives":[
				{
					"attributes":{
						"POSITION":8,
						"NORMAL":9,
						"TEXCOORD_0":10
					},
					"indices":11,
					"material":1
				}
			]
		},
		{
			"name":"lamp_socket",
			"primitives":[
				{
					"attributes":{
						"POSITION":12,
						"NORMAL":13,
						"TEXCOORD_0":14
					},
					"indices":15,
					"material":1
				}
			]
		},
		{
			"name":"sink",
			"primitives":[
				{
					"attributes":{
						"POSITION":16,
						"NORMAL":17,
						"TEXCOORD_0":18
					},
					"indices":19,
					"material":2
				}
			]
		},
		{
			"name":"NurbsPath",
			"primitives":[
				{
					"attributes":{
						"POSITION":20,
						"NORMAL":21,
						"TEXCOORD_0":22
					},
					"indices":23,
					"material":1
				}
			]
		},
		{
			"name":"chairs",
			"primitives":[
				{
					"attributes":{
						"POSITION":24,
						"NORMAL":25,
						"TEXCOORD_0":26
					},
					"indices":27,
					"material":0
				},
				{
					"attributes":{
						"POSITION":28,
						"NORMAL":29,
						"TEXCOORD_0":30
					},
					"indices":31,
					"material":3
				}
			]
		},
		{
			"name":"plant",
			"primitives":[
				{
					"attributes":{
						"POSITION":32,
						"NORMAL":33,
						"TEXCOORD_0":34
					},
					"indices":35,
					"material":4
				},
				{
					"attributes":{
						"POSITION":36,
						"NORMAL":37,
						"TEXCOORD_0":38
					},
					"indices":39,
					"material":5
				}
			]
		},
		{
			"name":"NurbsPath.001",
			"primitives":[
				{
					"attributes":{
						"POSITION":40,
						"NORMAL":41,
						"TEXCOORD_0":42
					},
					"indices":43,
					"material":6
				}
			]
		},
		{
			"name":"cuttingboard",
			"primitives":[
				{
					"attributes":{
						"POSITION":44,
						"NORMAL":45,
						"TEXCOORD_0":46
					},
					"indices":47,
					"material":0
				}
			]
		},
		{
			"name":"lamp",
			"primitives":[
				{
					"attributes":{
						"POSITION":48,
						"NORMAL":49,
						"TEXCOORD_0":50
					},
					"indices":51,
					"material":1
				}
			]
		},
		{
			"name":"lamp_cord",
			"primitives":[
				{
					"attributes":{
						"POSITION":52,
						"NORMAL":53,
						"TEXCOORD_0":54
					},
					"indices":55,
					"material":1
				}
			]
		},
		{
			"name":"NurbsPath.003",
			"primitives":[
				{
					"attributes":{
						"POSITION":56,
						"NORMAL":57,
						"TEXCOORD_0":58
					},
					"indices":59,
					"material":0
				}
			]
		}
	],
	"textures":[
		{
			"extensions":{
				"EXT_texture_webp":{
					"source":0
				}
			},
			"sampler":0
		},
		{
			"extensions":{
				"EXT_texture_webp":{
					"source":0
				}
			},
			"sampler":0
		},
		{
			"extensions":{
				"EXT_texture_webp":{
					"source":0
				}
			},
			"sampler":0
		},
		{
			"extensions":{
				"EXT_texture_webp":{
					"source":1
				}
			},
			"sampler":0
		},
		{
			"extensions":{
				"EXT_texture_webp":{
					"source":2
				}
			},
			"sampler":0
		},
		{
			"extensions":{
				"EXT_texture_webp":{
					"source":3
				}
			},
			"sampler":0
		},
		{
			"extensions":{
				"EXT_texture_webp":{
					"source":4
				}
			},
			"sampler":0
		},
		{
			"extensions":{
				"EXT_texture_webp":{
					"source":5
				}
			},
			"sampler":0
		},
		{
			"extensions":{
				"EXT_texture_webp":{
					"source":6
				}
			},
			"sampler":0
		},
		{
			"extensions":{
				"EXT_texture_webp":{
					"source":0
				}
			},
			"sampler":0
		}
	],
	"images":[
		{
			"mimeType":"image/webp",
			"name":"baked_hdr",
			"uri":"baked_hdr.webp"
		},
		{
			"mimeType":"image/webp",
			"name":"Image_5",
			"uri":"Image_5.webp"
		},
		{
			"mimeType":"image/webp",
			"name":"Image_4",
			"uri":"Image_4.webp"
		},
		{
			"mimeType":"image/webp",
			"name":"Image_3",
			"uri":"Image_3.webp"
		},
		{
			"mimeType":"image/webp",
			"name":"Image_2",
			"uri":"Image_2.webp"
		},
		{
			"mimeType":"image/webp",
			"name":"Image_1",
			"uri":"Image_1.webp"
		},
		{
			"mimeType":"image/webp",
			"name":"Image_0",
			"uri":"Image_0.webp"
		}
	],
	"accessors":[
		{
			"bufferView":0,
			"componentType":5126,
			"count":184,
			"max":[
				1.6918833255767822,
				0.7853690385818481,
				1.513824701309204
			],
			"min":[
				0.010548293590545654,
				0.017349988222122192,
				-1.0158207416534424
			],
			"type":"VEC3"
		},
		{
			"bufferView":1,
			"componentType":5126,
			"count":184,
			"type":"VEC3"
		},
		{
			"bufferView":2,
			"componentType":5126,
			"count":184,
			"type":"VEC2"
		},
		{
			"bufferView":3,
			"componentType":5123,
			"count":378,
			"type":"SCALAR"
		},
		{
			"bufferView":4,
			"componentType":5126,
			"count":464,
			"max":[
				3.974104404449463,
				3.007650375366211,
				2.951997995376587
			],
			"min":[
				3.3316502571105957,
				-0.0024053603410720825,
				-2.799546957015991
			],
			"type":"VEC3"
		},
		{
			"bufferView":5,
			"componentType":5126,
			"count":464,
			"type":"VEC3"
		},
		{
			"bufferView":6,
			"componentType":5126,
			"count":464,
			"type":"VEC2"
		},
		{
			"bufferView":7,
			"componentType":5123,
			"count":744,
			"type":"SCALAR"
		},
		{
			"bufferView":8,
			"componentType":5126,
			"count":66,
			"max":[
				0.8877909779548645,
				1.0573025941848755,
				0.48003339767456055
			],
			"min":[
				0.7360788583755493,
				0.7842007279396057,
				0.32832127809524536
			],
			"type":"VEC3"
		},
		{
			"bufferView":9,
			"componentType":5126,
			"count":66,
			"type":"VEC3"
		},
		{
			"bufferView":10,
			"componentType":5126,
			"count":66,
			"type":"VEC2"
		},
		{
			"bufferView":11,
			"componentType":5123,
			"count":192,
			"type":"SCALAR"
		},
		{
			"bufferView":12,
			"componentType":5126,
			"count":48,
			"max":[
				1.9990471601486206,
				3.001953363418579,
				0.8940900564193726
			],
			"min":[
				1.7742843627929688,
				2.9434828758239746,
				-0.36137858033180237
			],
			"type":"VEC3"
		},
		{
			"bufferView":13,
			"componentType":5126,
			"count":48,
			"type":"VEC3"
		},
		{
			"bufferView":14,
			"componentType":5126,
			"count":48,
			"type":"VEC2"
		},
		{
			"bufferView":15,
			"componentType":5123,
			"count":114,
			"type":"SCALAR"
		},
		{
			"bufferView":16,
			"componentType":5126,
			"count":540,
			"max":[
				3.9732487201690674,
				1.038810133934021,
				0.8770725727081299
			],
			"min":[
				3.409538507461548,
				0.46958380937576294,
				0.04797983169555664
			],
			"type":"VEC3"
		},
		{
			"bufferView":17,
			"componentType":5126,
			"count":540,
			"type":"VEC3"
		},
		{
			"bufferView":18,
			"componentType":5126,
			"count":540,
			"type":"VEC2"
		},
		{
			"bufferView":19,
			"componentType":5123,
			"count":1806,
			"type":"SCALAR"
		},
		{
			"bufferView":20,
			"componentType":5126,
			"count":554,
			"max":[
				3.8180813789367676,
				1.3507059812545776,
				1.8295936584472656
			],
			"min":[
				3.5273077487945557,
				0.8539132475852966,
				1.538001298904419
			],
			"type":"VEC3"
		},
		{
			"bufferView":21,
			"componentType":5126,
			"count":554,
			"type":"VEC3"
		},
		{
			"bufferView":22,
			"componentType":5126,
			"count":554,
			"type":"VEC2"
		},
		{
			"bufferView":23,
			"componentType":5123,
			"count":3036,
			"type":"SCALAR"
		},
		{
			"bufferView":24,
			"componentType":5126,
			"count":888,
			"max":[
				2.353980302810669,
				0.46550530195236206,
				2.1583213806152344
			],
			"min":[
				-0.6726669669151306,
				0.008771550841629505,
				-1.6574201583862305
			],
			"type":"VEC3"
		},
		{
			"bufferView":25,
			"componentType":5126,
			"count":888,
			"type":"VEC3"
		},
		{
			"bufferView":26,
			"componentType":5126,
			"count":888,
			"type":"VEC2"
		},
		{
			"bufferView":27,
			"componentType":5123,
			"count":1236,
			"type":"SCALAR"
		},
		{
			"bufferView":28,
			"componentType":5126,
			"count":4349,
			"max":[
				2.3887405395507812,
				1.0626145601272583,
				2.1937901973724365
			],
			"min":[
				-0.7094545960426331,
				0.46272653341293335,
				-1.6953928470611572
			],
			"type":"VEC3"
		},
		{
			"bufferView":29,
			"componentType":5126,
			"count":4349,
			"type":"VEC3"
		},
		{
			"bufferView":30,
			"componentType":5126,
			"count":4349,
			"type":"VEC2"
		},
		{
			"bufferView":31,
			"componentType":5123,
			"count":17724,
			"type":"SCALAR"
		},
		{
			"bufferView":32,
			"componentType":5126,
			"count":12022,
			"max":[
				0.9322435855865479,
				1.3984116315841675,
				0.5252861976623535
			],
			"min":[
				0.6733463406562805,
				1.0652735233306885,
				0.2451191544532776
			],
			"type":"VEC3"
		},
		{
			"bufferView":33,
			"componentType":5126,
			"count":12022,
			"type":"VEC3"
		},
		{
			"bufferView":34,
			"componentType":5126,
			"count":12022,
			"type":"VEC2"
		},
		{
			"bufferView":35,
			"componentType":5123,
			"count":30345,
			"type":"SCALAR"
		},
		{
			"bufferView":36,
			"componentType":5126,
			"count":453,
			"max":[
				0.8827247023582458,
				1.3676459789276123,
				0.48366397619247437
			],
			"min":[
				0.7198708653450012,
				0.9892014265060425,
				0.3134644329547882
			],
			"type":"VEC3"
		},
		{
			"bufferView":37,
			"componentType":5126,
			"count":453,
			"type":"VEC3"
		},
		{
			"bufferView":38,
			"componentType":5126,
			"count":453,
			"type":"VEC2"
		},
		{
			"bufferView":39,
			"componentType":5123,
			"count":1467,
			"type":"SCALAR"
		},
		{
			"bufferView":40,
			"componentType":5126,
			"count":440,
			"max":[
				3.772876501083374,
				1.1846354007720947,
				-0.6239703893661499
			],
			"min":[
				3.6994221210479736,
				0.8550267219543457,
				-0.6974246501922607
			],
			"type":"VEC3"
		},
		{
			"bufferView":41,
			"componentType":5126,
			"count":440,
			"type":"VEC3"
		},
		{
			"bufferView":42,
			"componentType":5126,
			"count":440,
			"type":"VEC2"
		},
		{
			"bufferView":43,
			"componentType":5123,
			"count":2418,
			"type":"SCALAR"
		},
		{
			"bufferView":44,
			"componentType":5126,
			"count":298,
			"max":[
				3.987236976623535,
				1.1806373596191406,
				-0.7947700619697571
			],
			"min":[
				3.9032540321350098,
				0.8560574650764465,
				-1.060726284980774
			],
			"type":"VEC3"
		},
		{
			"bufferView":45,
			"componentType":5126,
			"count":298,
			"type":"VEC3"
		},
		{
			"bufferView":46,
			"componentType":5126,
			"count":298,
			"type":"VEC2"
		},
		{
			"bufferView":47,
			"componentType":5123,
			"count":702,
			"type":"SCALAR"
		},
		{
			"bufferView":48,
			"componentType":5126,
			"count":85,
			"max":[
				1.941358208656311,
				2.0539073944091797,
				0.8599958419799805
			],
			"min":[
				1.835979700088501,
				1.5316213369369507,
				-0.3192503750324249
			],
			"type":"VEC3"
		},
		{
			"bufferView":49,
			"componentType":5126,
			"count":85,
			"type":"VEC3"
		},
		{
			"bufferView":50,
			"componentType":5126,
			"count":85,
			"type":"VEC2"
		},
		{
			"bufferView":51,
			"componentType":5123,
			"count":237,
			"type":"SCALAR"
		},
		{
			"bufferView":52,
			"componentType":5126,
			"count":48,
			"max":[
				1.8931971788406372,
				2.9434516429901123,
				0.8128774166107178
			],
			"min":[
				1.8841993808746338,
				2.053922176361084,
				-0.27103182673454285
			],
			"type":"VEC3"
		},
		{
			"bufferView":53,
			"componentType":5126,
			"count":48,
			"type":"VEC3"
		},
		{
			"bufferView":54,
			"componentType":5126,
			"count":48,
			"type":"VEC2"
		},
		{
			"bufferView":55,
			"componentType":5123,
			"count":144,
			"type":"SCALAR"
		},
		{
			"bufferView":56,
			"componentType":5126,
			"count":270,
			"max":[
				3.9242753982543945,
				1.009140968322754,
				2.3582210540771484
			],
			"min":[
				3.5161609649658203,
				0.8540210723876953,
				1.952747106552124
			],
			"type":"VEC3"
		},
		{
			"bufferView":57,
			"componentType":5126,
			"count":270,
			"type":"VEC3"
		},
		{
			"bufferView":58,
			"componentType":5126,
			"count":270,
			"type":"VEC2"
		},
		{
			"bufferView":59,
			"componentType":5123,
			"count":1152,
			"type":"SCALAR"
		}
	],
	"bufferViews":[
		{
			"buffer":0,
			"byteLength":2208,
			"byteOffset":0,
			"target":34962
		},
		{
			"buffer":0,
			"byteLength":2208,
			"byteOffset":2208,
			"target":34962
		},
		{
			"buffer":0,
			"byteLength":1472,
			"byteOffset":4416,
			"target":34962
		},
		{
			"buffer":0,
			"byteLength":756,
			"byteOffset":5888,
			"target":34963
		},
		{
			"buffer":0,
			"byteLength":5568,
			"byteOffset":6644,
			"target":34962
		},
		{
			"buffer":0,
			"byteLength":5568,
			"byteOffset":12212,
			"target":34962
		},
		{
			"buffer":0,
			"byteLength":3712,
			"byteOffset":17780,
			"target":34962
		},
		{
			"buffer":0,
			"byteLength":1488,
			"byteOffset":21492,
			"target":34963
		},
		{
			"buffer":0,
			"byteLength":792,
			"byteOffset":22980,
			"target":34962
		},
		{
			"buffer":0,
			"byteLength":792,
			"byteOffset":23772,
			"target":34962
		},
		{
			"buffer":0,
			"byteLength":528,
			"byteOffset":24564,
			"target":34962
		},
		{
			"buffer":0,
			"byteLength":384,
			"byteOffset":25092,
			"target":34963
		},
		{
			"buffer":0,
			"byteLength":576,
			"byteOffset":25476,
			"target":34962
		},
		{
			"buffer":0,
			"byteLength":576,
			"byteOffset":26052,
			"target":34962
		},
		{
			"buffer":0,
			"byteLength":384,
			"byteOffset":26628,
			"target":34962
		},
		{
			"buffer":0,
			"byteLength":228,
			"byteOffset":27012,
			"target":34963
		},
		{
			"buffer":0,
			"byteLength":6480,
			"byteOffset":27240,
			"target":34962
		},
		{
			"buffer":0,
			"byteLength":6480,
			"byteOffset":33720,
			"target":34962
		},
		{
			"buffer":0,
			"byteLength":4320,
			"byteOffset":40200,
			"target":34962
		},
		{
			"buffer":0,
			"byteLength":3612,
			"byteOffset":44520,
			"target":34963
		},
		{
			"buffer":0,
			"byteLength":6648,
			"byteOffset":48132,
			"target":34962
		},
		{
			"buffer":0,
			"byteLength":6648,
			"byteOffset":54780,
			"target":34962
		},
		{
			"buffer":0,
			"byteLength":4432,
			"byteOffset":61428,
			"target":34962
		},
		{
			"buffer":0,
			"byteLength":6072,
			"byteOffset":65860,
			"target":34963
		},
		{
			"buffer":0,
			"byteLength":10656,
			"byteOffset":71932,
			"target":34962
		},
		{
			"buffer":0,
			"byteLength":10656,
			"byteOffset":82588,
			"target":34962
		},
		{
			"buffer":0,
			"byteLength":7104,
			"byteOffset":93244,
			"target":34962
		},
		{
			"buffer":0,
			"byteLength":2472,
			"byteOffset":100348,
			"target":34963
		},
		{
			"buffer":0,
			"byteLength":52188,
			"byteOffset":102820,
			"target":34962
		},
		{
			"buffer":0,
			"byteLength":52188,
			"byteOffset":155008,
			"target":34962
		},
		{
			"buffer":0,
			"byteLength":34792,
			"byteOffset":207196,
			"target":34962
		},
		{
			"buffer":0,
			"byteLength":35448,
			"byteOffset":241988,
			"target":34963
		},
		{
			"buffer":0,
			"byteLength":144264,
			"byteOffset":277436,
			"target":34962
		},
		{
			"buffer":0,
			"byteLength":144264,
			"byteOffset":421700,
			"target":34962
		},
		{
			"buffer":0,
			"byteLength":96176,
			"byteOffset":565964,
			"target":34962
		},
		{
			"buffer":0,
			"byteLength":60690,
			"byteOffset":662140,
			"target":34963
		},
		{
			"buffer":0,
			"byteLength":5436,
			"byteOffset":722832,
			"target":34962
		},
		{
			"buffer":0,
			"byteLength":5436,
			"byteOffset":728268,
			"target":34962
		},
		{
			"buffer":0,
			"byteLength":3624,
			"byteOffset":733704,
			"target":34962
		},
		{
			"buffer":0,
			"byteLength":2934,
			"byteOffset":737328,
			"target":34963
		},
		{
			"buffer":0,
			"byteLength":5280,
			"byteOffset":740264,
			"target":34962
		},
		{
			"buffer":0,
			"byteLength":5280,
			"byteOffset":745544,
			"target":34962
		},
		{
			"buffer":0,
			"byteLength":3520,
			"byteOffset":750824,
			"target":34962
		},
		{
			"buffer":0,
			"byteLength":4836,
			"byteOffset":754344,
			"target":34963
		},
		{
			"buffer":0,
			"byteLength":3576,
			"byteOffset":759180,
			"target":34962
		},
		{
			"buffer":0,
			"byteLength":3576,
			"byteOffset":762756,
			"target":34962
		},
		{
			"buffer":0,
			"byteLength":2384,
			"byteOffset":766332,
			"target":34962
		},
		{
			"buffer":0,
			"byteLength":1404,
			"byteOffset":768716,
			"target":34963
		},
		{
			"buffer":0,
			"byteLength":1020,
			"byteOffset":770120,
			"target":34962
		},
		{
			"buffer":0,
			"byteLength":1020,
			"byteOffset":771140,
			"target":34962
		},
		{
			"buffer":0,
			"byteLength":680,
			"byteOffset":772160,
			"target":34962
		},
		{
			"buffer":0,
			"byteLength":474,
			"byteOffset":772840,
			"target":34963
		},
		{
			"buffer":0,
			"byteLength":576,
			"byteOffset":773316,
			"target":34962
		},
		{
			"buffer":0,
			"byteLength":576,
			"byteOffset":773892,
			"target":34962
		},
		{
			"buffer":0,
			"byteLength":384,
			"byteOffset":774468,
			"target":34962
		},
		{
			"buffer":0,
			"byteLength":288,
			"byteOffset":774852,
			"target":34963
		},
		{
			"buffer":0,
			"byteLength":3240,
			"byteOffset":775140,
			"target":34962
		},
		{
			"buffer":0,
			"byteLength":3240,
			"byteOffset":778380,
			"target":34962
		},
		{
			"buffer":0,
			"byteLength":2160,
			"byteOffset":781620,
			"target":34962
		},
		{
			"buffer":0,
			"byteLength":2304,
			"byteOffset":783780,
			"target":34963
		}
	],
	"samplers":[
		{
			"magFilter":9729,
			"minFilter":9987
		}
	],
	"buffers":[
		{
			"byteLength":786084,
			"uri":"kitchenProps.bin"
		}
	]
}
