{
	"asset":{
		"generator":"Khronos glTF Blender I/O v4.5.47",
		"version":"2.0"
	},
	"extensionsUsed":[
		"EXT_texture_webp"
	],
	"extensionsRequired":[
		"EXT_texture_webp"
	],
	"scene":0,
	"scenes":[
		{
			"name":"Scene",
			"nodes":[
				0
			]
		}
	],
	"nodes":[
		{
			"mesh":0,
			"name":"bottle"
		}
	],
	"materials":[
		{
			"doubleSided":true,
			"name":"glass",
			"pbrMetallicRoughness":{
				"baseColorTexture":{
					"index":0
				},
				"metallicFactor":0,
				"roughnessFactor":0.10000000149011612
			}
		},
		{
			"doubleSided":true,
			"name":"walls",
			"pbrMetallicRoughness":{
				"baseColorTexture":{
					"index":1
				},
				"metallicFactor":0,
				"roughnessFactor":0.5
			}
		},
		{
			"doubleSided":true,
			"name":"gray",
			"pbrMetallicRoughness":{
				"baseColorTexture":{
					"index":2
				},
				"metallicFactor":0,
				"roughnessFactor":0.3227272629737854
			}
		},
		{
			"doubleSided":true,
			"name":"chrome",
			"pbrMetallicRoughness":{
				"baseColorTexture":{
					"index":3
				},
				"metallicFactor":0.6772727370262146,
				"roughnessFactor":0.5
			}
		},
		{
			"doubleSided":true,
			"name":"plastic",
			"pbrMetallicRoughness":{
				"baseColorFactor":[
					0.009234348312020302,
					0.009234348312020302,
					0.009234348312020302,
					1
				],
				"metallicFactor":0,
				"roughnessFactor":0.10000000149011612
			}
		},
		{
			"alphaMode":"BLEND",
			"doubleSided":true,
			"name":"potted_plant_01_leaves",
			"normalTexture":{
				"index":4
			},
			"occlusionTexture":{
				"index":5
			},
			"pbrMetallicRoughness":{
				"baseColorTexture":{
					"index":6
				},
				"metallicFactor":0,
				"metallicRoughnessTexture":{
					"index":5
				}
			}
		},
		{
			"doubleSided":true,
			"name":"potted_plant_01_pot",
			"normalTexture":{
				"index":7
			},
			"occlusionTexture":{
				"index":8
			},
			"pbrMetallicRoughness":{
				"baseColorTexture":{
					"index":9
				},
				"metallicFactor":0,
				"roughnessFactor":0.5
			}
		}
	],
	"meshes":[
		{
			"name":"NurbsPath.001",
			"primitives":[
				{
					"attributes":{
						"POSITION":0,
						"NORMAL":1,
						"TEXCOORD_0":2
					},
					"indices":3,
					"material":0
				},
				{
					"attributes":{
						"POSITION":4,
						"NORMAL":5,
						"TEXCOORD_0":6
					},
					"indices":7,
					"material":1
				},
				{
					"attributes":{
						"POSITION":8,
						"NORMAL":9,
						"TEXCOORD_0":10
					},
					"indices":11,
					"material":2
				},
				{
					"attributes":{
						"POSITION":12,
						"NORMAL":13,
						"TEXCOORD_0":14
					},
					"indices":15,
					"material":3
				},
				{
					"attributes":{
						"POSITION":16,
						"NORMAL":17,
						"TEXCOORD_0":18
					},
					"indices":19,
					"material":4
				},
				{
					"attributes":{
						"POSITION":20,
						"NORMAL":21,
						"TEXCOORD_0":22
					},
					"indices":23,
					"material":5
				},
				{
					"attributes":{
						"POSITION":24,
						"NORMAL":25,
						"TEXCOORD_0":26
					},
					"indices":27,
					"material":6
				}
			]
		}
	],
	"textures":[
		{
			"sampler":0,
			"source":0
		},
		{
			"sampler":0,
			"source":0
		},
		{
			"sampler":0,
			"source":0
		},
		{
			"sampler":0,
			"source":0
		},
		{
			"extensions":{
				"EXT_texture_webp":{
					"source":1
				}
			},
			"sampler":0
		},
		{
			"extensions":{
				"EXT_texture_webp":{
					"source":2
				}
			},
			"sampler":0
		},
		{
			"extensions":{
				"EXT_texture_webp":{
					"source":3
				}
			},
			"sampler":0
		},
		{
			"extensions":{
				"EXT_texture_webp":{
					"source":4
				}
			},
			"sampler":0
		},
		{
			"extensions":{
				"EXT_texture_webp":{
					"source":5
				}
			},
			"sampler":0
		},
		{
			"extensions":{
				"EXT_texture_webp":{
					"source":6
				}
			},
			"sampler":0
		}
	],
	"images":[
		{
			"mimeType":"image/jpeg",
			"name":"baked_hdr",
			"uri":"baked_hdr.jpg"
		},
		{
			"mimeType":"image/webp",
			"name":"Image_5",
			"uri":"Image_5.webp"
		},
		{
			"mimeType":"image/webp",
			"name":"Image_4",
			"uri":"Image_4.webp"
		},
		{
			"mimeType":"image/webp",
			"name":"Image_3",
			"uri":"Image_3.webp"
		},
		{
			"mimeType":"image/webp",
			"name":"Image_2",
			"uri":"Image_2.webp"
		},
		{
			"mimeType":"image/webp",
			"name":"Image_1",
			"uri":"Image_1.webp"
		},
		{
			"mimeType":"image/webp",
			"name":"Image_0",
			"uri":"Image_0.webp"
		}
	],
	"accessors":[
		{
			"bufferView":0,
			"componentType":5126,
			"count":440,
			"max":[
				3.772876501083374,
				1.1846354007720947,
				-0.6239703893661499
			],
			"min":[
				3.6994221210479736,
				0.8550267219543457,
				-0.6974246501922607
			],
			"type":"VEC3"
		},
		{
			"bufferView":1,
			"componentType":5126,
			"count":440,
			"type":"VEC3"
		},
		{
			"bufferView":2,
			"componentType":5126,
			"count":440,
			"type":"VEC2"
		},
		{
			"bufferView":3,
			"componentType":5123,
			"count":2418,
			"type":"SCALAR"
		},
		{
			"bufferView":4,
			"componentType":5126,
			"count":2110,
			"max":[
				3.9772369861602783,
				3.007650375366211,
				2.951997995376587
			],
			"min":[
				-0.6726669669151306,
				-0.0024053603410720825,
				-2.799546957015991
			],
			"type":"VEC3"
		},
		{
			"bufferView":5,
			"componentType":5126,
			"count":2110,
			"type":"VEC3"
		},
		{
			"bufferView":6,
			"componentType":5126,
			"count":2110,
			"type":"VEC2"
		},
		{
			"bufferView":7,
			"componentType":5123,
			"count":4212,
			"type":"SCALAR"
		},
		{
			"bufferView":8,
			"componentType":5126,
			"count":801,
			"max":[
				3.8180813789367676,
				3.001953363418579,
				1.8295936584472656
			],
			"min":[
				0.7360788583755493,
				0.7842007279396057,
				-0.36137858033180237
			],
			"type":"VEC3"
		},
		{
			"bufferView":9,
			"componentType":5126,
			"count":801,
			"type":"VEC3"
		},
		{
			"bufferView":10,
			"componentType":5126,
			"count":801,
			"type":"VEC2"
		},
		{
			"bufferView":11,
			"componentType":5123,
			"count":3723,
			"type":"SCALAR"
		},
		{
			"bufferView":12,
			"componentType":5126,
			"count":540,
			"max":[
				3.9732487201690674,
				1.038810133934021,
				0.8770725727081299
			],
			"min":[
				3.409538507461548,
				0.46958380937576294,
				0.04797983169555664
			],
			"type":"VEC3"
		},
		{
			"bufferView":13,
			"componentType":5126,
			"count":540,
			"type":"VEC3"
		},
		{
			"bufferView":14,
			"componentType":5126,
			"count":540,
			"type":"VEC2"
		},
		{
			"bufferView":15,
			"componentType":5123,
			"count":1806,
			"type":"SCALAR"
		},
		{
			"bufferView":16,
			"componentType":5126,
			"count":4349,
			"max":[
				2.3887405395507812,
				1.0626145601272583,
				2.1937901973724365
			],
			"min":[
				-0.7094545960426331,
				0.46272653341293335,
				-1.6953928470611572
			],
			"type":"VEC3"
		},
		{
			"bufferView":17,
			"componentType":5126,
			"count":4349,
			"type":"VEC3"
		},
		{
			"bufferView":18,
			"componentType":5126,
			"count":4349,
			"type":"VEC2"
		},
		{
			"bufferView":19,
			"componentType":5123,
			"count":17724,
			"type":"SCALAR"
		},
		{
			"bufferView":20,
			"componentType":5126,
			"count":12022,
			"max":[
				0.9322435855865479,
				1.3984116315841675,
				0.5252861976623535
			],
			"min":[
				0.6733463406562805,
				1.0652735233306885,
				0.2451191544532776
			],
			"type":"VEC3"
		},
		{
			"bufferView":21,
			"componentType":5126,
			"count":12022,
			"type":"VEC3"
		},
		{
			"bufferView":22,
			"componentType":5126,
			"count":12022,
			"type":"VEC2"
		},
		{
			"bufferView":23,
			"componentType":5123,
			"count":30345,
			"type":"SCALAR"
		},
		{
			"bufferView":24,
			"componentType":5126,
			"count":453,
			"max":[
				0.8827247023582458,
				1.3676459789276123,
				0.48366397619247437
			],
			"min":[
				0.7198708653450012,
				0.9892014265060425,
				0.3134644329547882
			],
			"type":"VEC3"
		},
		{
			"bufferView":25,
			"componentType":5126,
			"count":453,
			"type":"VEC3"
		},
		{
			"bufferView":26,
			"componentType":5126,
			"count":453,
			"type":"VEC2"
		},
		{
			"bufferView":27,
			"componentType":5123,
			"count":1467,
			"type":"SCALAR"
		}
	],
	"bufferViews":[
		{
			"buffer":0,
			"byteLength":5280,
			"byteOffset":0,
			"target":34962
		},
		{
			"buffer":0,
			"byteLength":5280,
			"byteOffset":5280,
			"target":34962
		},
		{
			"buffer":0,
			"byteLength":3520,
			"byteOffset":10560,
			"target":34962
		},
		{
			"buffer":0,
			"byteLength":4836,
			"byteOffset":14080,
			"target":34963
		},
		{
			"buffer":0,
			"byteLength":25320,
			"byteOffset":18916,
			"target":34962
		},
		{
			"buffer":0,
			"byteLength":25320,
			"byteOffset":44236,
			"target":34962
		},
		{
			"buffer":0,
			"byteLength":16880,
			"byteOffset":69556,
			"target":34962
		},
		{
			"buffer":0,
			"byteLength":8424,
			"byteOffset":86436,
			"target":34963
		},
		{
			"buffer":0,
			"byteLength":9612,
			"byteOffset":94860,
			"target":34962
		},
		{
			"buffer":0,
			"byteLength":9612,
			"byteOffset":104472,
			"target":34962
		},
		{
			"buffer":0,
			"byteLength":6408,
			"byteOffset":114084,
			"target":34962
		},
		{
			"buffer":0,
			"byteLength":7446,
			"byteOffset":120492,
			"target":34963
		},
		{
			"buffer":0,
			"byteLength":6480,
			"byteOffset":127940,
			"target":34962
		},
		{
			"buffer":0,
			"byteLength":6480,
			"byteOffset":134420,
			"target":34962
		},
		{
			"buffer":0,
			"byteLength":4320,
			"byteOffset":140900,
			"target":34962
		},
		{
			"buffer":0,
			"byteLength":3612,
			"byteOffset":145220,
			"target":34963
		},
		{
			"buffer":0,
			"byteLength":52188,
			"byteOffset":148832,
			"target":34962
		},
		{
			"buffer":0,
			"byteLength":52188,
			"byteOffset":201020,
			"target":34962
		},
		{
			"buffer":0,
			"byteLength":34792,
			"byteOffset":253208,
			"target":34962
		},
		{
			"buffer":0,
			"byteLength":35448,
			"byteOffset":288000,
			"target":34963
		},
		{
			"buffer":0,
			"byteLength":144264,
			"byteOffset":323448,
			"target":34962
		},
		{
			"buffer":0,
			"byteLength":144264,
			"byteOffset":467712,
			"target":34962
		},
		{
			"buffer":0,
			"byteLength":96176,
			"byteOffset":611976,
			"target":34962
		},
		{
			"buffer":0,
			"byteLength":60690,
			"byteOffset":708152,
			"target":34963
		},
		{
			"buffer":0,
			"byteLength":5436,
			"byteOffset":768844,
			"target":34962
		},
		{
			"buffer":0,
			"byteLength":5436,
			"byteOffset":774280,
			"target":34962
		},
		{
			"buffer":0,
			"byteLength":3624,
			"byteOffset":779716,
			"target":34962
		},
		{
			"buffer":0,
			"byteLength":2934,
			"byteOffset":783340,
			"target":34963
		}
	],
	"samplers":[
		{
			"magFilter":9729,
			"minFilter":9987
		}
	],
	"buffers":[
		{
			"byteLength":786276,
			"uri":"prop.bin"
		}
	]
}
